<?xml version="1.0" standalone="no"?>
<!DOCTYPE svg PUBLIC "-//W3C//DTD SVG 1.1//EN" "http://www.w3.org/Graphics/SVG/1.1/DTD/svg11.dtd" >
<svg xmlns="http://www.w3.org/2000/svg" xmlns:xlink="http://www.w3.org/1999/xlink" version="1.1">
<metadata>
Created by FontForge 20190801 at Tue Feb 18 22:39:31 2020
 By Leevi
Copyright 2020 Acmion (https://github.com/Acmion/Negatronic)
</metadata>
<defs>
<font id="Negatronic-Bold" horiz-adv-x="604" >
  <font-face 
    font-family="Negatronic"
    font-weight="700"
    font-stretch="normal"
    units-per-em="1000"
    panose-1="0 0 8 0 0 0 0 0 0 0"
    ascent="800"
    descent="-200"
    x-height="500"
    cap-height="700"
    bbox="-44 -231 1013 847"
    underline-thickness="50"
    underline-position="-100"
    unicode-range="U+000D-E001"
  />
    <missing-glyph />
    <glyph glyph-name="NULL" horiz-adv-x="0" 
 />
    <glyph glyph-name="NULL" horiz-adv-x="0" 
 />
    <glyph glyph-name="nonmarkingreturn" unicode="&#xd;" horiz-adv-x="288" 
 />
    <glyph glyph-name="space" unicode=" " horiz-adv-x="288" 
 />
    <glyph glyph-name="A" unicode="A" horiz-adv-x="681" 
d="M472 163h-262l-62 -163h-144l274 700h127l272 -700h-144zM247 279h188l-93 252h-1z" />
    <glyph glyph-name="B" unicode="B" horiz-adv-x="690" 
d="M62 700h348q95 0 152.5 -45t57.5 -121v-50q0 -33 -16.5 -63t-46.5 -49v-1q48 -17 77.5 -55t29.5 -85v-52q0 -82 -60 -131q-61 -48 -160 -48h-382v700zM410 410q32 0 52 20.5t20 54.5v34q0 28 -21 44.5t-56 16.5h-205v-170h210zM434 120q44 0 68 17.5t24 49.5v44
q0 29 -21 47t-56 18h-249v-176h234z" />
    <glyph glyph-name="C" unicode="C" horiz-adv-x="688" 
d="M164.5 33q-58.5 33 -90.5 93.5t-32 139.5v168q0 79 32.5 139.5t92 93.5t137.5 33h106q75 0 132 -32t88.5 -89.5t31.5 -133.5h-136q0 60 -32 96.5t-84 36.5h-106q-56 0 -90 -41.5t-34 -108.5v-156q0 -67 33 -108.5t87 -41.5h108q53 0 86.5 41t33.5 108h136
q0 -81 -32 -142.5t-90 -95t-134 -33.5h-108q-77 0 -135.5 33z" />
    <glyph glyph-name="D" unicode="D" horiz-adv-x="702" 
d="M62 700h334q80 0 140.5 -30t94 -85t33.5 -127v-196q0 -129 -115.5 -195.5t-245.5 -66.5h-241v700zM396 122q64 0 97 37t33 109v184q0 57 -37 91.5t-97 34.5h-192v-456h196z" />
    <glyph glyph-name="E" unicode="E" horiz-adv-x="628" 
d="M62 700h534v-120h-396v-162h366v-120h-366v-178h396v-120h-534v700z" />
    <glyph glyph-name="F" unicode="F" 
d="M62 700h524v-120h-386v-188h349v-120h-349v-272h-138v700z" />
    <glyph glyph-name="G" unicode="G" horiz-adv-x="712" 
d="M166 33q-59 33 -91.5 93.5t-32.5 139.5v168q0 79 32.5 139.5t92 93.5t137.5 33h112q75 0 132 -30t88.5 -85t31.5 -119h-136q0 46 -32 79t-84 33h-112q-56 0 -90 -41.5t-34 -108.5v-156q0 -67 33.5 -108.5t88.5 -41.5h118q51 0 84.5 37t33.5 92v14h-194v120h330v-134
q0 -73 -32 -130t-90 -89t-132 -32h-118q-77 0 -136 33z" />
    <glyph glyph-name="H" unicode="H" horiz-adv-x="726" 
d="M62 700h138v-289h326v289h138v-700h-138v291h-326v-291h-138v700z" />
    <glyph glyph-name="I" unicode="I" horiz-adv-x="282" 
d="M72 700h138v-700h-138v700z" />
    <glyph glyph-name="J" unicode="J" horiz-adv-x="605" 
d="M124.5 31.5q-51.5 31.5 -80 89t-28.5 132.5h136q0 -59 25.5 -95t66.5 -36h77q41 0 66.5 37.5t25.5 98.5v442h138v-448q0 -75 -28 -132t-79 -88.5t-117 -31.5h-83q-68 0 -119.5 31.5z" />
    <glyph glyph-name="K" unicode="K" horiz-adv-x="674" 
d="M498 0l-231 294l-67 -72v-222h-138v700h138v-302l278 302h170l-288 -307l306 -393h-168z" />
    <glyph glyph-name="L" unicode="L" horiz-adv-x="588" 
d="M62 700h138v-580h380v-120h-518v700z" />
    <glyph glyph-name="M" unicode="M" horiz-adv-x="823" 
d="M62 700h123l229 -416l224 416h123v-700h-135v443l-173 -316h-78l-178 316v-443h-135v700z" />
    <glyph glyph-name="N" unicode="N" horiz-adv-x="718" 
d="M62 700h123l336 -476v476h135v-700h-123l-336 476v-476h-135v700z" />
    <glyph glyph-name="O" unicode="O" horiz-adv-x="724" 
d="M169.5 33.5q-60.5 33.5 -94 94t-33.5 140.5v164q0 80 33.5 140.5t94 94t139.5 33.5h106q79 0 139.5 -33.5t94 -94t33.5 -140.5v-164q0 -80 -33.5 -140.5t-94 -94t-139.5 -33.5h-106q-79 0 -139.5 33.5zM415 122q58 0 93.5 42t35.5 110v152q0 68 -35.5 110t-93.5 42h-106
q-58 0 -93.5 -42t-35.5 -110v-152q0 -68 35.5 -110t93.5 -42h106z" />
    <glyph glyph-name="P" unicode="P" horiz-adv-x="652" 
d="M62 700h369q61 0 108 -23.5t73 -67t26 -99.5v-93q0 -58 -27 -102.5t-75.5 -69t-112.5 -24.5h-223v-221h-138v700zM421 341q35 0 57 22.5t22 59.5v81q0 35 -19.5 55.5t-51.5 20.5h-229v-239h221z" />
    <glyph glyph-name="Q" unicode="Q" horiz-adv-x="728" 
d="M627 -41l-81 80q-62 -39 -131 -39h-106q-79 0 -139.5 33.5t-94 94t-33.5 140.5v164q0 80 33.5 140.5t94 94t139.5 33.5h106q79 0 139.5 -33.5t94 -94t33.5 -140.5v-156q0 -78 -46 -148l78 -77zM453 130l-91 90l87 92l87 -86q8 26 8 50v150q0 68 -35.5 110t-93.5 42h-106
q-58 0 -93.5 -42t-35.5 -110v-152q0 -68 35.5 -110t93.5 -42h106q19 0 38 8z" />
    <glyph glyph-name="R" unicode="R" horiz-adv-x="678" 
d="M62 700h372q91 0 146.5 -49t55.5 -129v-70q0 -52 -29.5 -90.5t-85.5 -58.5v-2q32 -21 48.5 -48t32.5 -75l56 -178h-143l-53 166q-13 43 -36 64t-57 21h-169v-251h-138v700zM408 370q42 0 66 22.5t24 58.5v65q0 29 -18 46.5t-48 17.5h-232v-210h208z" />
    <glyph glyph-name="S" unicode="S" horiz-adv-x="656" 
d="M100 61.5q-62 61.5 -62 171.5h136q0 -52 26.5 -81.5t73.5 -29.5h111q44 0 71.5 18.5t27.5 49.5v26q0 49 -72 61l-184 31q-90 15 -136.5 57.5t-46.5 108.5v48q0 53 28.5 93.5t81 62.5t121.5 22h113q65 0 115 -27t77.5 -75.5t27.5 -112.5h-136q0 42 -23 67.5t-61 25.5h-113
q-42 0 -67.5 -18t-25.5 -48v-19q0 -50 69 -62l183 -32q91 -16 139 -56.5t48 -104.5v-58q0 -53 -29.5 -94t-82.5 -63.5t-123 -22.5h-115q-110 0 -172 61.5z" />
    <glyph glyph-name="T" unicode="T" horiz-adv-x="606" 
d="M234 580h-222v120h582v-120h-222v-580h-138v580z" />
    <glyph glyph-name="U" unicode="U" horiz-adv-x="720" 
d="M176 31.5q-56 31.5 -87 88.5t-31 132v448h138v-444q0 -60 30.5 -97t79.5 -37h106q50 0 81 37t31 97v444h138v-448q0 -75 -31 -132t-88 -88.5t-131 -31.5h-106q-74 0 -130 31.5z" />
    <glyph glyph-name="V" unicode="V" horiz-adv-x="666" 
d="M4 700h144l184 -525h2l185 525h143l-269 -700h-124z" />
    <glyph glyph-name="W" unicode="W" horiz-adv-x="877" 
d="M16 700h140l86 -497h2l145 460h102l142 -459h2l86 496h140l-141 -700h-130l-149 480h-2l-152 -480h-131z" />
    <glyph glyph-name="X" unicode="X" horiz-adv-x="641" 
d="M242 357l-234 343h157l156 -230l156 230h156l-234 -343l244 -357h-157l-165 244l-166 -244h-157z" />
    <glyph glyph-name="Y" unicode="Y" horiz-adv-x="652" 
d="M257 272l-259 428h150l178 -301l178 301h150l-259 -428v-272h-138v272z" />
    <glyph glyph-name="Z" unicode="Z" horiz-adv-x="606" 
d="M22 68l371 514h-353v118h544v-68l-373 -514h363v-118h-552v68z" />
    <glyph glyph-name="a" unicode="a" horiz-adv-x="584" 
d="M90 39q-48 39 -48 103v29q0 63 50 101.5t132 38.5h61q26 0 56 -7t55 -19v45q0 25 -16.5 40.5t-43.5 15.5h-86q-28 0 -45 -3t-17 -18h-132q0 66 53.5 100.5t140.5 34.5h86q88 0 142 -46.5t54 -123.5v-330h-126v60q-15 -18 -59 -41.5q-35 -18.5 -69 -18.5h-62
q-78 0 -126 39zM288 104q37 0 66 19t42 51v9q-16 12 -44.5 19t-60.5 7h-63q-24 0 -39 -12t-15 -32v-18q0 -19 16.5 -31t43.5 -12h54z" />
    <glyph glyph-name="b" unicode="b" 
d="M236 20q-40 28 -52 44v-64h-126v700h136v-240q9 9 49.5 27q29.5 13 56.5 13h70q58 0 102.5 -24.5t69 -69.5t24.5 -104v-99q0 -60 -25 -106t-70 -71.5t-103 -25.5h-69q-33 0 -63 20zM352 119q35 0 56.5 26t21.5 68v79q0 40 -21 64.5t-55 24.5h-62q-40 0 -67 -28t-31 -74
v-71q7 -40 32.5 -64.5t60.5 -24.5h65z" />
    <glyph glyph-name="c" unicode="c" horiz-adv-x="560" 
d="M139.5 25q-48.5 25 -75 70t-26.5 104v102q0 59 26.5 104t74.5 70t111 25h79q60 0 106 -24t71 -67.5t25 -100.5h-135q0 34 -18.5 54.5t-48.5 20.5h-77q-35 0 -56.5 -25.5t-21.5 -66.5v-82q0 -41 22 -66.5t57 -25.5h77q32 0 51.5 23t19.5 61h135q0 -91 -56.5 -146
t-149.5 -55h-79q-63 0 -111.5 25z" />
    <glyph glyph-name="d" unicode="d" 
d="M92.5 54q-54.5 54 -54.5 142v99q0 61 26 107.5t73 72t109 25.5h55q29 0 59 -12.5q43 -19.5 50 -26.5v239h136v-700h-126v66q-16 -22 -54 -45.5q-34 -20.5 -71 -20.5h-59q-89 0 -143.5 54zM310 117q41 0 68.5 29.5t31.5 78.5v72q-7 39 -30.5 62.5t-55.5 23.5h-61
q-40 0 -64.5 -27t-24.5 -71v-79q0 -40 22 -64.5t57 -24.5h57z" />
    <glyph glyph-name="e" unicode="e" horiz-adv-x="578" 
d="M140.5 23.5q-48.5 23.5 -75.5 66t-27 97.5v114q0 59 27 104t75.5 70t111.5 25h80q96 0 154 -54t58 -144v-99h-370v-16q0 -33 21 -53t57 -20h78q35 0 56.5 0.5t21.5 17.5h134q0 -42 -27 -66t-75.5 -45t-111.5 -21h-76q-63 0 -111.5 23.5zM410 301v1q0 39 -21 62.5
t-56 23.5h-81q-36 0 -58 -22.5t-22 -63.5v-1h238z" />
    <glyph glyph-name="f" unicode="f" horiz-adv-x="379" 
d="M104 383h-86v117h86v28q0 81 51.5 126.5t143.5 45.5h72v-116h-70q-32 0 -46.5 -14t-14.5 -44v-26h120v-117h-120v-383h-136v383z" />
    <glyph glyph-name="g" unicode="g" horiz-adv-x="606" 
d="M119 -164.5q-53 35.5 -59 106.5h134q2 -19 18 -22.5t40 -3.5h90q31 0 50.5 25.5t19.5 66.5v44q-28 -30 -48.5 -39q-28.5 -13 -54.5 -13h-69q-91 0 -146.5 54t-55.5 142v99q0 61 26 107.5t73 72t108 25.5h58q37 0 66.5 -16q42.5 -23 52.5 -35v51h126v-492
q0 -62 -25.5 -109t-72.5 -73t-108 -26h-90q-80 0 -133 35.5zM318 115q38 0 64 31.5t30 82.5v66q-4 40 -27 64t-58 24h-70q-37 0 -60 -27t-23 -71v-79q0 -41 21 -66t54 -25h69z" />
    <glyph glyph-name="h" unicode="h" horiz-adv-x="602" 
d="M58 700h136v-251q9 12 54.5 35q32.5 16 62.5 16h62q80 0 128.5 -50t48.5 -132v-318h-136v313q0 31 -16.5 50t-42.5 19h-62q-35 0 -62.5 -25.5t-36.5 -66.5v-290h-136v700z" />
    <glyph glyph-name="i" unicode="i" horiz-adv-x="288" 
d="M76 700h136v-136h-136v136zM76 500h136v-500h-136v500z" />
    <glyph glyph-name="j" unicode="j" horiz-adv-x="300" 
d="M88 700h136v-136h-136v136zM-44 -84h62q36 0 53 23.5t17 72.5v488h136v-483q0 -112 -50 -164.5t-156 -52.5h-62v116z" />
    <glyph glyph-name="k" unicode="k" horiz-adv-x="555" 
d="M403 0l-156 200l-53 -53v-147h-136v700h136v-400l197 200h158l-214 -213l222 -287h-154z" />
    <glyph glyph-name="l" unicode="l" horiz-adv-x="296" 
d="M99.5 37.5q-41.5 37.5 -41.5 116.5v546h136v-538q0 -24 11 -35t35 -11h54v-116h-64q-89 0 -130.5 37.5z" />
    <glyph glyph-name="m" unicode="m" horiz-adv-x="848" 
d="M747 450.5q46 -49.5 46 -122.5v-328h-136v328q0 28 -13 44.5t-34 16.5h-43q-28 0 -49 -20.5t-26 -54.5v-314h-136v327q0 28 -13 45t-34 17h-39q-29 0 -51 -26t-28 -68v-295h-136v500h126v-59q13 19 46.5 41q28.5 18 57.5 18h56q30 0 65.5 -19t46.5 -46q17 23 52.5 46
q30.5 19 64.5 19h55q76 0 122 -49.5z" />
    <glyph glyph-name="n" unicode="n" horiz-adv-x="600" 
d="M58 500h126v-61q19.0947 22.4643 57 42.5q35 18.5 70 18.5h60q82 0 129.5 -50t47.5 -125v-325h-136v320q0 31 -16.5 50t-42.5 19h-60q-35 0 -62.5 -25.5t-36.5 -66.5v-297h-136v500z" />
    <glyph glyph-name="o" unicode="o" horiz-adv-x="594" 
d="M139.5 24.5q-48.5 24.5 -75 69.5t-26.5 104v102q0 59 27 104.5t75.5 70.5t111.5 25h90q63 0 111.5 -25t75.5 -70.5t27 -104.5v-102q0 -59 -27 -104t-75.5 -69.5t-112.5 -24.5h-90q-63 0 -111.5 24.5zM339 117q37 0 59 25.5t22 66.5v82q0 41 -22 66.5t-58 25.5h-86
q-36 0 -58 -25.5t-22 -66.5v-82q0 -41 22 -66.5t57 -25.5h86z" />
    <glyph glyph-name="p" unicode="p" 
d="M58 500h126v-55q14 17 53.5 38q32.5 17 63.5 17h63q60 0 106 -24.5t71 -68.5t25 -101v-97q0 -62 -25 -109.5t-70 -73.5t-104 -26h-65q-28 0 -57.5 13q-44.5 21 -50.5 27v-240h-136v700zM349 117q37 0 59 28t22 74v77q0 39 -22.5 63t-59.5 24h-61q-29 0 -55 -23.5
t-38 -60.5v-84q5 -44 30.5 -71t62.5 -27h62z" />
    <glyph glyph-name="q" unicode="q" 
d="M410 42q-5 -6 -46.5 -28q-27.5 -14 -53.5 -14h-71q-91 0 -146 54.5t-55 143.5v97q0 61 25.5 107.5t72.5 72t108 25.5h67q30 0 59.5 -16q39.5 -23 49.5 -35v51h126v-700h-136v242zM316 117q38 0 64 31.5t30 82.5v64q-4 40 -27 64t-58 24h-69q-37 0 -59.5 -27t-22.5 -71
v-77q0 -41 20.5 -66t53.5 -25h68z" />
    <glyph glyph-name="r" unicode="r" horiz-adv-x="383" 
d="M58 500h126v-65q18 27 54.5 46.5q35.5 18.5 74.5 18.5h68v-117h-68q-53 0 -86 -32t-33 -82v-269h-136v500z" />
    <glyph glyph-name="s" unicode="s" horiz-adv-x="549" 
d="M89 48q-55 48 -55 118h134q0 -19 18.5 -35.5t48.5 -16.5h90q60 0 60 33v9q0 10 -10 18.5q-10.0769 8.56536 -27 11.5l-173 30q-62 11 -96.5 43.5q-35.5 33.5 -35.5 78.5v26q0 64 52.5 100t146.5 36h78q84 0 135.5 -44.5t51.5 -110.5h-134q0 15 -14.5 28t-38.5 13h-76
q-65 0 -65 -30v-9q0 -11 8.5 -18.5q8.64108 -7.62448 24.5 -10.5l182 -33q57 -10 92 -42.5t35 -73.5v-28q0 -65 -53.5 -103t-142.5 -38h-90q-91 0 -146 48z" />
    <glyph glyph-name="t" unicode="t" horiz-adv-x="410" 
d="M147 40q-41 40 -41 124v219h-88v117h92v150h132v-150h130v-117h-130v-213q0 -28 10.5 -41t33.5 -13h86v-116h-96q-88 0 -129 40z" />
    <glyph glyph-name="u" unicode="u" horiz-adv-x="598" 
d="M100 53.5q-48 53.5 -48 140.5v306h136v-308q0 -33 16.5 -53.5t43.5 -20.5h58q33 0 60 27.5t38 72.5v282h136v-500h-126v64q-15 -19 -56.5 -44q-33.5 -20 -64.5 -20h-66q-79 0 -127 53.5z" />
    <glyph glyph-name="v" unicode="v" horiz-adv-x="521" 
d="M-2 500h143l118 -344h2l119 344h143l-201 -500h-124z" />
    <glyph glyph-name="w" unicode="w" horiz-adv-x="749" 
d="M14 500h141l61 -318h2l109 305h100l105 -305h2l60 318h141l-117 -500h-130l-111 316l-115 -316h-128z" />
    <glyph glyph-name="x" unicode="x" horiz-adv-x="532" 
d="M187 253l-183 247h152l110 -149l110 149h152l-183 -247l189 -253h-152l-116 156l-116 -156h-152z" />
    <glyph glyph-name="y" unicode="y" horiz-adv-x="598" 
d="M118.5 -164.5q-52.5 35.5 -58.5 106.5h134q2 -19 18 -22.5t40 -3.5h82q31 0 50.5 25.5t19.5 66.5v62q-25 -36 -52.5 -52.5q-29.5 -17.5 -58.5 -17.5h-66q-79 0 -127 52.5t-48 139.5v308h136v-310q0 -33 16.5 -53.5t43.5 -20.5h58q33 0 60 27.5t38 72.5v284h136v-492
q0 -62 -25.5 -109t-72.5 -73t-108 -26h-82q-81 0 -133.5 35.5z" />
    <glyph glyph-name="z" unicode="z" horiz-adv-x="500" 
d="M18 68l270 316h-258v116h452v-69l-270 -316h265v-115h-459v68z" />
    <glyph glyph-name="zero" unicode="0" horiz-adv-x="674" 
d="M162 22.5q-54 30.5 -84 86.5t-30 129v224q0 73 29.5 129t83.5 86.5t125 30.5h106q69 0 122 -30.5t82.5 -86.5t29.5 -129v-224q0 -73 -29 -129t-82 -86.5t-123 -30.5h-106q-70 0 -124 30.5zM390 114q44 0 70.5 33.5t26.5 88.5v228q0 55 -26.5 88.5t-70.5 33.5h-102
q-46 0 -74 -33.5t-28 -88.5v-228q0 -55 28 -88.5t74 -33.5h102z" />
    <glyph glyph-name="one" unicode="1" horiz-adv-x="385" 
d="M179 550l-161 -81v128l194 103h105v-700h-138v550z" />
    <glyph glyph-name="two" unicode="2" horiz-adv-x="583" 
d="M33 100q0 60 22 104t75 76l248 148q18 10 28.5 28t10.5 36v32q0 28 -20.5 45t-53.5 17h-92q-39 0 -61 -28.5t-22 -80.5h-138q0 109 58 170t161 61h94q63 0 111 -23t74.5 -65t26.5 -96v-32q0 -54 -22.5 -92.5t-70.5 -66.5l-241 -140q-24 -14 -36.5 -31t-12.5 -42h387v-120
h-526v100z" />
    <glyph glyph-name="three" unicode="3" horiz-adv-x="617" 
d="M562.5 302q22.5 -35 22.5 -73v-40q0 -58 -29 -103t-81.5 -69.5t-121.5 -24.5h-97q-107 0 -167.5 61t-60.5 170h136q0 -52 24 -80.5t68 -28.5h97q42 0 68 20.5t26 54.5v40q0 31 -27 50t-70 19h-128v120h128q38 0 61 18.5t23 48.5v40q0 28 -22 44.5t-57 16.5h-97
q-41 0 -63.5 -28.5t-22.5 -80.5h-139q0 109 59.5 170t165.5 61h97q64 0 113.5 -23t76.5 -64.5t27 -95.5v-40q0 -37 -19 -69t-53 -55q40 -24 62.5 -59z" />
    <glyph glyph-name="four" unicode="4" horiz-adv-x="621" 
d="M381 134h-285q-42 0 -65 18t-23 52v28l372 468h139v-444h88v-122h-88v-134h-138v134zM385 250v277h-1l-219 -277h220z" />
    <glyph glyph-name="five" unicode="5" horiz-adv-x="625" 
d="M96 51q-58 59 -58 164h136q0 -47 22 -74t62 -27h96q44 0 70.5 24t26.5 64v54q0 35 -27.5 57t-72.5 22h-289v365h501v-122h-363v-121h151q71 0 125 -25t83.5 -70.5t29.5 -105.5v-54q0 -62 -29.5 -110t-82.5 -74t-123 -26h-96q-104 0 -162 59z" />
    <glyph glyph-name="six" unicode="6" horiz-adv-x="634" 
d="M164.5 21.5q-55.5 29.5 -86 83.5t-30.5 124v246q0 69 30 122t85 82t127 29h86q63 0 111.5 -25.5t75.5 -72t27 -107.5h-136q0 37 -21.5 60t-56.5 23h-86q-47 0 -75.5 -30.5t-28.5 -80.5v-78q26 25 62.5 40t70.5 15h66q67 0 118 -25t79 -71t28 -106v-41q0 -65 -30.5 -114
t-86 -76t-127.5 -27h-73q-73 0 -128.5 29.5zM366 108q48 0 77 27.5t29 73.5v41q0 39 -24.5 62.5t-64.5 23.5h-66q-48 0 -83.5 -27.5t-45.5 -72.5v-34q0 -42 29.5 -68t77.5 -26h71z" />
    <glyph glyph-name="seven" unicode="7" horiz-adv-x="520" 
d="M139 48q0 47 11.5 97.5t32.5 92.5l174 340h-355v122h516v-79l-199 -405q-20 -41 -31 -86t-11 -82v-48h-138v48z" />
    <glyph glyph-name="eight" unicode="8" horiz-adv-x="648" 
d="M144 15.5q-55 23.5 -85.5 66t-30.5 97.5v47q0 38 29 75t76 59v1q-37 22 -59.5 56t-22.5 68v44q0 53 28.5 93.5t81 63t120.5 22.5h86q68 0 120.5 -22.5t81 -63t28.5 -93.5v-44q0 -33 -22.5 -67.5t-59.5 -56.5v-1q47 -22 76 -59t29 -75v-47q0 -55 -30.5 -97.5t-85.5 -66
t-127 -23.5h-106q-72 0 -127 23.5zM367 416q41 0 66.5 19t25.5 50v42q0 28 -25.5 45t-66.5 17h-86q-41 0 -66.5 -17t-25.5 -45v-42q0 -31 25.5 -50t66.5 -19h86zM377 111q47 0 76 20.5t29 54.5v37q0 35 -31.5 56t-83.5 21h-86q-52 0 -83.5 -21t-31.5 -56v-37q0 -34 29 -54.5
t76 -20.5h106z" />
    <glyph glyph-name="nine" unicode="9" horiz-adv-x="638" 
d="M155 17q-50 25 -77.5 70.5t-27.5 104.5h137q0 -35 23 -56.5t61 -21.5h86q43 0 69 26.5t26 70.5v81q-25 -22 -60 -36t-67 -14h-67q-68 0 -119.5 26.5t-80 74.5t-28.5 111v40q0 63 31 111.5t88 75.5t131 27h70q71 0 125.5 -27t84.5 -76t30 -113v-281q0 -65 -29 -114.5
t-82 -77t-122 -27.5h-86q-66 0 -116 25zM327 358q45 0 79.5 26t45.5 68v48q0 41 -28 66.5t-74 25.5h-70q-50 0 -81 -27t-31 -71v-40q0 -43 24.5 -69.5t64.5 -26.5h70z" />
    <glyph glyph-name="period" unicode="." horiz-adv-x="240" 
d="M60.5 12.5q-22.5 22.5 -22.5 59.5t22.5 59.5t59.5 22.5t59.5 -22.5t22.5 -59.5t-22.5 -59.5t-59.5 -22.5t-59.5 22.5z" />
    <glyph glyph-name="comma" unicode="," horiz-adv-x="252" 
d="M-6 -88l30 27q52 47 52 114v66h136v-66q0 -67 -24.5 -121t-71.5 -91l-34 -27z" />
    <glyph glyph-name="colon" unicode=":" horiz-adv-x="240" 
d="M60.5 357.5q-22.5 22.5 -22.5 59.5t22.5 59.5q22.5 23.5 59.5 23.5t59.5 -23.5q22.5 -22.5 22.5 -59.5t-22.5 -59.5t-59.5 -22.5t-59.5 22.5zM60.5 30.5q-22.5 22.5 -22.5 59.5t22.5 59.5t59.5 22.5t59.5 -22.5t22.5 -59.5t-22.5 -59.5t-59.5 -22.5t-59.5 22.5z" />
    <glyph glyph-name="semicolon" unicode=";" horiz-adv-x="259" 
d="M79.5 357.5q-22.5 22.5 -22.5 59.5t22.5 59.5q22.5 23.5 59.5 23.5t59.5 -23.5q22.5 -22.5 22.5 -59.5t-22.5 -59.5t-59.5 -22.5t-59.5 22.5zM-6 -88l30 27q52 47 52 114v66h136v-66q0 -67 -24.5 -121t-71.5 -91l-34 -27z" />
    <glyph glyph-name="exclam" unicode="!" horiz-adv-x="292" 
d="M77 700h138v-495h-138v495zM86.5 12.5q-22.5 22.5 -22.5 59.5t22.5 59.5t59.5 22.5t59.5 -22.5t22.5 -59.5t-22.5 -59.5t-59.5 -22.5t-59.5 22.5z" />
    <glyph glyph-name="question" unicode="?" horiz-adv-x="591" 
d="M221 226q0 44 16.5 74.5t39.5 49.5t59 41q41 25 60 44.5t19 48.5v36q0 31 -22 49.5t-59 18.5h-86q-40 0 -64 -26.5t-24 -70.5h-138q0 64 28 113.5t79.5 76.5t118.5 27h86q65 0 114.5 -23.5t77 -66t27.5 -98.5v-36q0 -45 -15.5 -75t-37 -47t-57.5 -39q-42 -24 -63 -45.5
t-21 -59.5v-14h-138v22zM230.5 12.5q-22.5 22.5 -22.5 59.5t22.5 59.5t59.5 22.5t59.5 -22.5t22.5 -59.5t-22.5 -59.5t-59.5 -22.5t-59.5 22.5z" />
    <glyph glyph-name="asterisk" unicode="*" horiz-adv-x="452" 
d="M174 496l-91 -61l-45 84l104 54l-104 53l45 84l91 -60v100h104v-100l91 60l45 -84l-104 -53l104 -54l-45 -84l-91 61v-101h-104v101z" />
    <glyph glyph-name="numbersign" unicode="#" horiz-adv-x="709" 
d="M150 157h-112v110h112v163h-112v110h112v160h128v-160h153v160h128v-160h112v-110h-112v-163h112v-110h-112v-157h-128v157h-153v-157h-128v157zM431 265v167h-153v-167h153z" />
    <glyph glyph-name="slash" unicode="/" horiz-adv-x="550" 
d="M394 722h138l-376 -747h-138z" />
    <glyph glyph-name="backslash" unicode="\" horiz-adv-x="550" 
d="M18 722h138l376 -747h-138z" />
    <glyph glyph-name="parenleft" unicode="(" horiz-adv-x="342" 
d="M73 9.5q-35 107.5 -35 229.5v20q0 127 35 234t109 207h142q-77 -103 -113.5 -210.5t-36.5 -230.5v-20q0 -113 36.5 -220.5t113.5 -220.5h-142q-74 104 -109 211.5z" />
    <glyph glyph-name="parenright" unicode=")" horiz-adv-x="342" 
d="M131.5 18.5q36.5 107.5 36.5 220.5v20q0 123 -36.5 230.5t-113.5 210.5h142q74 -100 109 -207t35 -234v-20q0 -122 -35 -229.5t-109 -211.5h-142q77 113 113.5 220.5z" />
    <glyph glyph-name="braceleft" unicode="{" horiz-adv-x="398" 
d="M171.5 -181.5q-50.5 49.5 -50.5 137.5v165q0 37 -22 58t-61 21v104q39 0 61 21t22 58v165q0 88 50.5 137.5t140.5 49.5h68v-118h-61q-29 0 -45.5 -19.5t-16.5 -53.5v-161q0 -39 -17.5 -73t-50.5 -58q33 -24 50.5 -58t17.5 -73v-161q0 -34 16.5 -53.5t45.5 -19.5h61v-118
h-68q-90 0 -140.5 49.5z" />
    <glyph glyph-name="braceright" unicode="}" horiz-adv-x="398" 
d="M18 -113h61q29 0 45.5 19.5t16.5 53.5v161q0 39 17.5 73t50.5 58q-33 24 -50.5 58t-17.5 73v161q0 34 -16.5 53.5t-45.5 19.5h-61v118h68q90 0 140.5 -49.5t50.5 -137.5v-165q0 -37 22 -58t61 -21v-104q-39 0 -61 -21t-22 -58v-165q0 -88 -50.5 -137.5t-140.5 -49.5h-68
v118z" />
    <glyph glyph-name="bracketleft" unicode="[" horiz-adv-x="347" 
d="M116 -156.5q-54 50.5 -54 140.5v560q0 90 54 140.5t151 50.5h56v-118h-56q-32 0 -50.5 -19t-18.5 -53v-562q0 -34 18.5 -52.5t50.5 -18.5h56v-119h-56q-97 0 -151 50.5z" />
    <glyph glyph-name="bracketright" unicode="]" horiz-adv-x="347" 
d="M24 -88h56q32 0 50.5 18.5t18.5 52.5v562q0 34 -18.5 53t-50.5 19h-56v118h56q97 0 151 -50.5t54 -140.5v-560q0 -90 -54 -140.5t-151 -50.5h-56v119z" />
    <glyph glyph-name="hyphen" unicode="-" horiz-adv-x="405" 
d="M38 316h329v-118h-329v118z" />
    <glyph glyph-name="underscore" unicode="_" horiz-adv-x="594" 
d="M0 -10h594v-118h-594v118z" />
    <glyph glyph-name="quotedbl" unicode="&#x22;" horiz-adv-x="406" 
d="M38 700h136v-243h-136v243zM232 700h136v-243h-136v243z" />
    <glyph glyph-name="quotesingle" unicode="'" horiz-adv-x="212" 
d="M38 700h136v-243h-136v243z" />
    <glyph glyph-name="dollar" unicode="$" horiz-adv-x="656" 
d="M574 342.5q48 -40.5 48 -104.5v-66q0 -78 -60 -127t-160 -53v-94h-136v94q-107 1 -167.5 63t-60.5 170h136q0 -52 26.5 -81.5t73.5 -29.5h111q44 0 71.5 18.5t27.5 49.5v34q0 49 -72 61l-184 31q-90 15 -136.5 57.5t-46.5 108.5v56q0 51 27.5 91t77.5 63t116 24v94h136
v-94q94 -5 150.5 -63t56.5 -152h-136q0 42 -23 67.5t-61 25.5h-113q-42 0 -67.5 -18t-25.5 -48v-27q0 -50 69 -62l183 -32q91 -16 139 -56.5z" />
    <glyph glyph-name="plus" unicode="+" horiz-adv-x="576" 
d="M220 265h-182v118h182v182h136v-182h182v-118h-182v-182h-136v182z" />
    <glyph glyph-name="equal" unicode="=" horiz-adv-x="533" 
d="M38 459h457v-116h-457v116zM38 275h457v-116h-457v116z" />
    <glyph glyph-name="greater" unicode="&#x3e;" horiz-adv-x="568" 
d="M38 144l350 172l-350 172v134l512 -263v-86l-512 -263v134z" />
    <glyph glyph-name="less" unicode="&#x3c;" horiz-adv-x="568" 
d="M18 273v86l512 263v-134l-350 -172l350 -172v-134z" />
    <glyph glyph-name="asciitilde" unicode="~" horiz-adv-x="627" 
d="M330 230q-31 19 -66 53q-18 17 -27 24t-18 7h-12q-21 0 -33 -23.5t-14 -65.5h-122q1 97 46 152t123 55h12q44 0 72 -17.5t57 -48.5q20 -20 31.5 -28.5t26.5 -8.5h12q22 0 34.5 24t14.5 67h122q-2 -98 -47 -153.5t-124 -55.5h-12q-45 0 -76 19z" />
    <glyph glyph-name="asciicircum" unicode="^" horiz-adv-x="609" 
d="M247 700h116l208 -363h-142l-124 223l-125 -223h-142z" />
    <glyph glyph-name="percent" unicode="%" horiz-adv-x="1051" 
d="M652 722h142l-396 -747h-142zM84 305.5q-46 45.5 -46 119.5v118q0 74 46 119.5t122 45.5h56q76 0 122 -45.5t46 -119.5v-118q0 -74 -46 -119.5t-122 -45.5h-56q-76 0 -122 45.5zM259 369q21 0 33.5 17.5t12.5 46.5v102q0 29 -12.5 46.5t-33.5 17.5h-50q-21 0 -33.5 -17.5
t-12.5 -46.5v-102q0 -29 12.5 -46.5t33.5 -17.5h50zM667 37.5q-46 45.5 -46 119.5v118q0 74 46 119.5t122 45.5h56q76 0 122 -45.5t46 -119.5v-118q0 -74 -46 -119.5t-122 -45.5h-56q-76 0 -122 45.5zM842 101q21 0 33.5 17.5t12.5 46.5v102q0 29 -12.5 46.5t-33.5 17.5h-50
q-21 0 -33.5 -17.5t-12.5 -46.5v-102q0 -29 12.5 -46.5t33.5 -17.5h50z" />
    <glyph glyph-name="at" unicode="@" horiz-adv-x="900" 
d="M116.5 31q-78.5 71 -78.5 197v200q0 140 87.5 219t243.5 79h198q139 0 217 -66t78 -184v-149q0 -85 -40.5 -132.5t-113.5 -47.5h-32q-30 0 -55.5 14t-40.5 38h-1q-21 -29 -52 -45.5t-65 -16.5h-52q-79 0 -123 44t-44 122v67q0 82 45 128t125 46h46q24 0 45 -9.5t35 -26.5
v30h110v-249q0 -18 8.5 -28.5t24.5 -10.5h20q17 0 26.5 16.5t9.5 46.5v163q0 66 -45.5 103t-125.5 37h-198q-96 0 -149.5 -49.5t-53.5 -138.5v-200q0 -74 45 -116t124 -42h176q54 0 100.5 11.5t75.5 32.5l59 -89q-35 -31 -98 -48t-140 -17h-173q-140 0 -218.5 71zM464 241
q27 0 44 20.5t21 57.5v63q-3 27 -18 42.5t-39 15.5h-47q-29 0 -45.5 -19.5t-16.5 -54.5v-59q0 -31 14.5 -48.5t39.5 -17.5h47z" />
    <glyph glyph-name="ampersand" unicode="&#x26;" horiz-adv-x="696" 
d="M544 0l-57 62q-39 -34 -86.5 -52t-99.5 -18h-40q-105 0 -164 47t-59 130v36q0 47 19 79.5t46 52.5t85 55l-10 12q-52 62 -52 121v22q0 73 52 117t137 44h38q80 0 128.5 -43.5t48.5 -114.5v-20q0 -30 -14 -55.5q-14 -24.5 -44.5 -49t-87.5 -59.5l-18 -11l108 -118
q21 49 26 102h115q-6 -105 -57 -193l134 -146h-148zM252 525q0 -31 33 -70l19 -23l16 11q54 38 69 52t15 35v20q0 23 -15 36.5t-40 13.5h-35q-27 0 -44.5 -15t-17.5 -40v-20zM410 146l-148 162q-54 -31 -72 -50.5t-18 -50.5v-34q0 -30 24 -48.5t63 -18.5h44q61 0 107 40z
" />
    <glyph glyph-name="bar" unicode="|" horiz-adv-x="272" 
d="M68 847h136v-994h-136v994z" />
    <glyph glyph-name="grave" unicode="`" horiz-adv-x="312" 
d="M32 748h150l98 -180h-130z" />
    </font>
</defs>
</svg>
